/* XPM */
static char * juce_icon_xpm[] = {
"32 32 357 2",
"  	c None",
". 	c #C6320C",
"+ 	c #D94F10",
"@ 	c #D45D20",
"# 	c #DB6623",
"$ 	c #D4591B",
"% 	c #D44813",
"& 	c #C42E0B",
"* 	c #DB5E1A",
"= 	c #F29128",
"- 	c #FFB537",
"; 	c #FFB738",
"> 	c #FFB336",
", 	c #FFB235",
"' 	c #FFB437",
") 	c #FFB735",
"! 	c #FDAD31",
"~ 	c #EF8323",
"{ 	c #D25218",
"] 	c #DE5D17",
"^ 	c #FEB034",
"/ 	c #FFB234",
"( 	c #FEAC2C",
"_ 	c #FFC96D",
": 	c #FFBA4D",
"< 	c #FFAF33",
"[ 	c #FFB035",
"} 	c #FFBB50",
"| 	c #FED5A4",
"1 	c #FED7A5",
"2 	c #FFCE7B",
"3 	c #FFB12B",
"4 	c #F89E2E",
"5 	c #D44B13",
"6 	c #C23B14",
"7 	c #F18C27",
"8 	c #FEAF32",
"9 	c #FED597",
"0 	c #FDA387",
"a 	c #FC7142",
"b 	c #FD9270",
"c 	c #FFCA72",
"d 	c #FFB746",
"e 	c #FDAC91",
"f 	c #FB3D00",
"g 	c #FB4000",
"h 	c #FC6633",
"i 	c #FEB493",
"j 	c #FFD181",
"k 	c #FFB430",
"l 	c #E16C1D",
"m 	c #C6310B",
"n 	c #FBA731",
"o 	c #FEAD30",
"p 	c #FFC159",
"q 	c #FEC2A7",
"r 	c #FC4C0E",
"s 	c #FB4C0B",
"t 	c #FC4C0C",
"u 	c #FB4604",
"v 	c #FEBEA1",
"w 	c #FFD89C",
"x 	c #FC4200",
"y 	c #FC4B0B",
"z 	c #FB4807",
"A 	c #FC6333",
"B 	c #FFDAA3",
"C 	c #FFAF2F",
"D 	c #EC8324",
"E 	c #BD3717",
"F 	c #F79E2D",
"G 	c #FEAE31",
"H 	c #FFD086",
"I 	c #FD855D",
"J 	c #FB4503",
"K 	c #FC7C50",
"L 	c #FECDB5",
"M 	c #FB4705",
"N 	c #FC7A50",
"O 	c #FFBE53",
"P 	c #E97C23",
"Q 	c #E87A22",
"R 	c #FFC362",
"S 	c #FD8360",
"T 	c #FB4B0B",
"U 	c #FC5316",
"V 	c #FEBDA5",
"W 	c #FB4A09",
"X 	c #FC4C0B",
"Y 	c #FB4707",
"Z 	c #FFD88E",
"` 	c #FFB536",
" .	c #D35219",
"..	c #D34F16",
"+.	c #FFDFA3",
"@.	c #FB4605",
"#.	c #FB3F00",
"$.	c #FDAD90",
"%.	c #FC4A0A",
"&.	c #FC7245",
"*.	c #FFAE32",
"=.	c #FEAF34",
"-.	c #C13617",
";.	c #F59228",
">.	c #FEB139",
",.	c #FEC0A5",
"'.	c #FC4606",
").	c #FDA07E",
"!.	c #FC4A0C",
"~.	c #FED4AE",
"{.	c #FFCF7B",
"].	c #FEC58B",
"^.	c #FECF90",
"/.	c #FFB033",
"(.	c #D96D22",
"_.	c #C34017",
":.	c #FFB737",
"<.	c #FFAD2E",
"[.	c #FFCF7E",
"}.	c #FFD7A6",
"|.	c #FFDEA4",
"1.	c #FEEBD3",
"2.	c #FC703E",
"3.	c #FDA07F",
"4.	c #FB4908",
"5.	c #FC4908",
"6.	c #FEE2D9",
"7.	c #FEAE92",
"8.	c #FC4F12",
"9.	c #FB4401",
"0.	c #FB4201",
"a.	c #FED69C",
"b.	c #F8A02C",
"c.	c #DC641B",
"d.	c #FFB135",
"e.	c #FFD084",
"f.	c #FC6E41",
"g.	c #FC4808",
"h.	c #FD845B",
"i.	c #FED3C4",
"j.	c #FECCBA",
"k.	c #FC5A20",
"l.	c #FB4909",
"m.	c #FB4301",
"n.	c #FDA98A",
"o.	c #FC6731",
"p.	c #FEB9A2",
"q.	c #FC5D24",
"r.	c #FC4B0C",
"s.	c #FEB89B",
"t.	c #FFB32D",
"u.	c #C84815",
"v.	c #EF8523",
"w.	c #FEAC2D",
"x.	c #FEB588",
"y.	c #FB4402",
"z.	c #FC662F",
"A.	c #FEDED3",
"B.	c #FDA484",
"C.	c #FB4100",
"D.	c #FDB195",
"E.	c #FD9877",
"F.	c #FB4200",
"G.	c #FD9777",
"H.	c #FFB53E",
"I.	c #DD661D",
"J.	c #B12E16",
"K.	c #FBA32F",
"L.	c #FFAD2C",
"M.	c #FDA182",
"N.	c #FC713E",
"O.	c #FEC6B2",
"P.	c #FC5B21",
"Q.	c #FEBAA3",
"R.	c #FC5114",
"S.	c #FEBBA4",
"T.	c #FC622B",
"U.	c #FC825A",
"V.	c #FFBF56",
"W.	c #EA7920",
"X.	c #C33017",
"Y.	c #FEAD33",
"Z.	c #FEB33C",
"`.	c #FD9676",
" +	c #FEE6DF",
".+	c #FEC1AC",
"++	c #FB3800",
"@+	c #FC7548",
"#+	c #FFC565",
"$+	c #EE8524",
"%+	c #C42F14",
"&+	c #FEAE33",
"*+	c #FFB94A",
"=+	c #FC8867",
"-+	c #FB4C0C",
";+	c #FDA687",
">+	c #FEB79D",
",+	c #FEBAA5",
"'+	c #FC7544",
")+	c #FEBEA8",
"!+	c #FC6530",
"~+	c #FC8660",
"{+	c #FFBD52",
"]+	c #EF8624",
"^+	c #B32C15",
"/+	c #FCA630",
"(+	c #FFBB4E",
"_+	c #FC8562",
":+	c #FD926D",
"<+	c #FEC7B4",
"[+	c #FC6129",
"}+	c #FB4805",
"|+	c #FEAF97",
"1+	c #FD926C",
"2+	c #FEAE91",
"3+	c #FC622A",
"4+	c #FEAD2E",
"5+	c #EB7C20",
"6+	c #F38B25",
"7+	c #FEAD2D",
"8+	c #FDA284",
"9+	c #FD865C",
"0+	c #FED6C9",
"a+	c #FEAC94",
"b+	c #FD8C66",
"c+	c #FEBBA3",
"d+	c #FC7747",
"e+	c #FB4300",
"f+	c #FB4808",
"g+	c #FED69B",
"h+	c #FFAF32",
"i+	c #E36A1C",
"j+	c #E26A1C",
"k+	c #FFB032",
"l+	c #FED094",
"m+	c #FC6D40",
"n+	c #FC5E28",
"o+	c #FD916D",
"p+	c #FEE6DD",
"q+	c #FD9D7A",
"r+	c #FEB298",
"s+	c #FD8458",
"t+	c #FEF0EA",
"u+	c #FEBE86",
"v+	c #FED79C",
"w+	c #C84D19",
"x+	c #BB441B",
"y+	c #FFB637",
"z+	c #FFCA6F",
"A+	c #FEDBA4",
"B+	c #FC642F",
"C+	c #FB4A0A",
"D+	c #FDB59C",
"E+	c #FC5419",
"F+	c #FED298",
"G+	c #FFAD2F",
"H+	c #FFAF35",
"I+	c #FCA931",
"J+	c #AF2D13",
"K+	c #872F21",
"L+	c #FA9C2B",
"M+	c #FFCD77",
"N+	c #FD7146",
"O+	c #FEC3AC",
"P+	c #FC4D0D",
"Q+	c #FD8B6B",
"R+	c #FFB948",
"S+	c #FFAF34",
"T+	c #E67621",
"U+	c #CA5318",
"V+	c #FFAE2F",
"W+	c #FED2A5",
"X+	c #FEDACD",
"Y+	c #FD8460",
"Z+	c #9D3316",
"`+	c #7C291A",
" @	c #F58A24",
".@	c #FEAE32",
"+@	c #FFDCA8",
"@@	c #FC4000",
"#@	c #FC4607",
"$@	c #FFFFF7",
"%@	c #FC4705",
"&@	c #FC4605",
"*@	c #FECFA4",
"=@	c #FFB02F",
"-@	c #D75B17",
";@	c #A23819",
">@	c #FDAB32",
",@	c #FEB643",
"'@	c #FDAC90",
")@	c #FC764B",
"!@	c #FFDC98",
"~@	c #FC4E0F",
"{@	c #FED2B0",
"]@	c #FFB138",
"^@	c #F59028",
"/@	c #7B2818",
"(@	c #AC330F",
"_@	c #FFB236",
":@	c #FEC058",
"<@	c #FDB59B",
"[@	c #FEC4A7",
"}@	c #FEA71F",
"|@	c #FEBFA6",
"1@	c #FC6635",
"2@	c #FEDEB4",
"3@	c #FFAB29",
"4@	c #F9982A",
"5@	c #902B15",
"6@	c #AA3B12",
"7@	c #FA9F2E",
"8@	c #FFB743",
"9@	c #FEC69F",
"0@	c #FC7143",
"a@	c #FD855E",
"b@	c #FFC86B",
"c@	c #FFC567",
"d@	c #FDA185",
"e@	c #FC7446",
"f@	c #FD8B6A",
"g@	c #FEB68D",
"h@	c #FFD081",
"i@	c #FFB12E",
"j@	c #F68825",
"k@	c #852E19",
"l@	c #83250E",
"m@	c #F0771F",
"n@	c #FFB32E",
"o@	c #FFCA70",
"p@	c #FED4A5",
"q@	c #FED3A8",
"r@	c #FFC76A",
"s@	c #FFB034",
"t@	c #FFC769",
"u@	c #FFB949",
"v@	c #FFAE2B",
"w@	c #50170C",
"x@	c #8F3211",
"y@	c #EE741F",
"z@	c #FCA82E",
"A@	c #FFB632",
"B@	c #FFB838",
"C@	c #F99E2D",
"D@	c #E1621A",
"E@	c #73230C",
"F@	c #2B130C",
"G@	c #671808",
"H@	c #AA3C11",
"I@	c #D7621C",
"J@	c #EA7422",
"K@	c #F07924",
"L@	c #E36F1F",
"M@	c #D15C1C",
"N@	c #962F0E",
"O@	c #5A1607",
"P@	c #000000",
"                                                                ",
"                          . + @ # $ % &                         ",
"                      * = - ; > , ' ) ! ~ {                     ",
"                  ] ^ / ( _ : < [ } | 1 2 3 4 5                 ",
"              6 7 ' 8 9 0 a b c d e f g h i j k l               ",
"            m n o p q r s t u v w x y t t z A B C D             ",
"          E F G H I J t t t t K L M t t t t t N O > P           ",
"          Q [ R S T y t t t t U V W t t t t X Y Z [ `  .        ",
"        ..; [ +.@.t t t t t X #.$.%.t t t t t &.p *.=.^ -.      ",
"        ;.=.[ >.,.'.t t t t t #.).W t t t t !.~.{.].^./.(.      ",
"      _.:.<.[.}.|.1.2.u t t t g 3.4.t t t 5.6.7.8.9.0.a.b.      ",
"      c.d.e.f.f g.h.i.j.k.l.y m.n.M y l.o.p.q.4.r.t 4.s.t.u.    ",
"      v.w.x.u X y t y.z.A.B.C.u D.m.g E.3.F.t t t t T G.H.I.    ",
"    J.K.L.M.t t t t y t m.N.O.P.Q.R.S.T.W y t t t t t U.V.W.    ",
"    X.Y.Z.`.t t t t t t t t C.M. +.+++t t t t t t t t @+#+$+    ",
"    %+&+*+=+t t t t t y -+'.;+>+,+'+)+!+@.t t t t t t ~+{+]+    ",
"    ^+/+(+_+t t t y t M :+<+[+}+|+F.F.1+2+3+J t y t W 7.4+5+    ",
"      6+7+8+X t t C.9+0+!+J t W a+g y X g b+c+d+C.e+f+g+h+i+    ",
"      j+k+l+m+n+o+p+q+y.t t t z r+g t t y t F.s+t+u+v+o ; w+    ",
"      x+y+4+z+{.A+B+C+y t t t M D+C.t t t t y t E+F+G+H+I+J+    ",
"      K+L+=.[ M+N+-+t t t t t y.O+C.t t t t t t P+Q+R+S+T+      ",
"        U+y+V+W+#.t t t t t t g X+g t t t t t t t Y+{+y+Z+      ",
"        `+ @.@+@@@y t t t t y #@$@%@y t t t t t &@*@=@-@        ",
"          ;@>@,@'@J r.t t t t )@!@a t t t t t ~@{@]@^@/@        ",
"            (@_@:@<@e+t t y y.[@}@|@@.t t @.1@2@3@4@5@          ",
"              6@7@8@9@0@#.g a@b@[ c@d@e@f@g@h@i@j@k@            ",
"                l@m@n@o@p@q@r@h+s@S+^ t@u@v@=.] w@              ",
"                    x@y@z@A@_@[ [ [ > B@C@D@E@                  ",
"                      F@G@H@I@J@K@L@M@N@O@                      ",
"                                P@                              ",
"                                                                ",
"                                                                "};
